<?xml version="1.0" encoding="UTF-8"?><svg id="Laag_2" xmlns="http://www.w3.org/2000/svg" viewBox="0 0 300 300"><g id="Layer_1"><path d="M234.9,0H65.09C29.2,0,0,29.2,0,65.09v169.82c0,35.89,29.2,65.09,65.09,65.09h169.81c35.9,0,65.1-29.2,65.1-65.09V65.09C300,29.2,270.8,0,234.9,0ZM271.7,234.91c0,20.29-16.51,36.79-36.8,36.79H65.09c-20.29,0-36.79-16.5-36.79-36.79V65.09c0-20.29,16.5-36.79,36.79-36.79h169.81c20.29,0,36.8,16.5,36.8,36.79v169.82Z" fill="#9400ff"/><path d="M191.52,105.5l-66.55,59.49-16.49-14.73c-5.8-5.18-14.76-4.71-19.98,1.13-5.2,5.83-4.7,14.77,1.13,19.98l25.91,23.15c2.68,2.39,6.05,3.59,9.42,3.59s6.74-1.2,9.42-3.61l75.98-67.92c5.83-5.21,6.33-14.15,1.12-19.97-5.21-5.85-14.15-6.33-19.97-1.12Z" fill="#9400ff"/></g></svg>