<?xml version="1.0" encoding="UTF-8"?><svg id="Laag_2" xmlns="http://www.w3.org/2000/svg" viewBox="0 0 220.38 220.38"><g id="Layer_1"><path d="M66.54.04L10.01,0h0c-.33,0-.65.02-.98.05-.07,0-.14.02-.21.03-.25.03-.5.06-.76.11-.06.01-.12.03-.19.05-.26.06-.51.12-.77.19-.04.01-.08.03-.11.04-.27.09-.54.18-.81.29-.02,0-.04.02-.07.03-.28.12-.55.24-.82.39-.02.01-.05.03-.07.04-.26.14-.52.29-.77.46-.07.04-.13.1-.19.14-.2.14-.4.28-.6.44-.26.21-.5.43-.74.67-.24.24-.46.48-.67.74-.16.19-.3.4-.44.6-.05.06-.1.13-.14.19-.17.25-.32.51-.46.77-.01.02-.03.05-.04.07-.14.27-.27.54-.39.82,0,.02-.02.04-.03.07-.11.27-.2.54-.29.81-.01.04-.03.08-.04.11-.08.25-.14.51-.19.77-.01.06-.03.12-.05.19-.05.25-.08.5-.11.75,0,.07-.02.14-.03.21C.02,9.35,0,9.68,0,10H0s.03,56.54.03,56.54c0,5.52,4.48,10,10.01,9.99,5.52,0,10-4.48,9.99-10.01l-.02-32.37,40.68,40.68c3.91,3.91,10.24,3.91,14.14,0,3.91-3.91,3.91-10.24,0-14.14L34.16,20.02l32.37.02c2.76,0,5.27-1.12,7.08-2.93,1.81-1.81,2.93-4.31,2.93-7.07,0-5.52-4.47-10-9.99-10.01Z" fill="#9400ff"/><path d="M.03,153.84L0,210.37H0c0,.33.02.65.05.98,0,.07.02.14.03.21.03.25.06.5.11.76.01.06.03.12.05.19.06.26.12.51.19.77.01.04.03.07.04.11.09.27.18.54.29.81,0,.02.02.04.03.07.12.28.24.55.39.82.01.02.03.05.04.07.14.26.29.52.46.77.04.07.1.13.14.19.14.2.28.4.44.6.21.26.43.5.67.74.24.24.48.46.74.67.19.16.4.3.6.44.06.04.13.1.19.14.25.17.51.32.77.46.02.01.05.03.07.04.27.14.54.27.82.39.02,0,.04.02.07.03.27.11.54.2.81.29.04.01.08.03.11.04.25.08.51.14.77.19.06.01.12.03.19.05.25.05.5.08.76.11.07,0,.14.02.21.03.33.03.65.05.98.05h0l56.54-.03c5.52,0,10-4.48,9.99-10.01,0-5.52-4.48-10-10.01-9.99l-32.37.02,40.68-40.68c3.91-3.91,3.91-10.24,0-14.14-3.91-3.91-10.24-3.91-14.14,0l-40.68,40.68.02-32.37c0-2.76-1.12-5.27-2.93-7.08-1.81-1.81-4.31-2.93-7.07-2.93-5.52,0-10,4.47-10.01,9.99Z" fill="#9400ff"/><path d="M153.84,220.34l56.53.04s0,0,0,0c.33,0,.65-.02.98-.05.07,0,.14-.02.21-.03.25-.03.51-.06.76-.11.06-.01.12-.03.19-.05.26-.06.51-.12.77-.19.04-.01.08-.03.11-.04.27-.09.54-.18.81-.29.02,0,.04-.02.07-.03.28-.12.55-.24.82-.39.02-.01.05-.03.07-.04.26-.14.52-.29.77-.46.07-.04.13-.1.19-.14.2-.14.4-.28.6-.44.26-.21.5-.43.74-.67.24-.24.46-.48.67-.74.16-.19.3-.4.44-.6.05-.06.1-.13.14-.19.17-.25.32-.51.46-.77.01-.02.03-.05.04-.07.14-.27.27-.54.39-.82,0-.02.02-.04.03-.07.11-.27.2-.54.29-.81.01-.04.03-.08.04-.11.08-.25.14-.51.19-.77.01-.06.03-.12.05-.19.05-.25.08-.5.11-.76,0-.07.02-.14.03-.21.03-.32.05-.65.05-.98,0,0,0,0,0,0l-.03-56.54c0-5.52-4.48-10-10.01-9.99-5.52,0-10,4.48-9.99,10.01l.02,32.37-40.68-40.68c-3.91-3.91-10.24-3.91-14.14,0-3.91,3.91-3.91,10.24,0,14.14l40.68,40.68-32.37-.02c-2.76,0-5.27,1.12-7.08,2.93-1.81,1.81-2.93,4.31-2.93,7.07,0,5.52,4.47,10,9.99,10.01Z" fill="#9400ff"/><path d="M220.34,66.54l.04-56.53s0,0,0,0c0-.33-.02-.65-.05-.98,0-.07-.02-.14-.03-.21-.03-.25-.06-.5-.11-.75-.01-.06-.03-.13-.05-.19-.06-.26-.12-.51-.19-.76-.01-.04-.03-.08-.04-.11-.09-.27-.18-.54-.29-.81,0-.02-.02-.04-.03-.07-.12-.28-.24-.55-.39-.82-.01-.02-.03-.05-.04-.07-.14-.26-.29-.52-.46-.77-.04-.07-.1-.13-.14-.19-.14-.2-.28-.4-.44-.6-.21-.26-.43-.5-.67-.74-.24-.24-.48-.46-.74-.67-.19-.16-.4-.3-.6-.44-.06-.05-.13-.1-.19-.14-.25-.17-.51-.32-.77-.46-.02-.01-.05-.03-.07-.04-.27-.14-.54-.27-.82-.39-.02,0-.04-.02-.07-.03-.27-.11-.54-.2-.81-.29-.04-.01-.08-.03-.11-.04-.25-.08-.51-.14-.77-.19-.06-.01-.12-.03-.19-.05-.25-.05-.5-.08-.76-.11-.07,0-.14-.02-.21-.03-.32-.03-.65-.05-.98-.05h0l-56.53.03c-5.52,0-10,4.48-9.99,10.01,0,5.52,4.48,10,10.01,9.99l32.37-.02-40.68,40.68c-3.91,3.91-3.91,10.24,0,14.14,3.91,3.91,10.24,3.91,14.14,0l40.68-40.68-.02,32.37c0,2.76,1.12,5.27,2.93,7.08,1.81,1.81,4.31,2.93,7.06,2.93,5.52,0,10-4.47,10.01-9.99Z" fill="#9400ff"/></g></svg>