<?xml version="1.0" encoding="UTF-8"?><svg id="Laag_2" xmlns="http://www.w3.org/2000/svg" viewBox="0 0 626.4 333.67"><g id="Laag_1-2"><path d="M313.2,0c60.54,0,117.98,13.78,169.37,38.39,53.31,25.53,99.95,62.69,136.6,108.18,4.82,5.98,7.23,13.12,7.23,20.27s-2.41,14.29-7.23,20.27c-36.66,45.49-83.29,82.65-136.6,108.18-51.39,24.61-108.83,38.39-169.37,38.39s-117.98-13.78-169.37-38.39c-53.31-25.53-99.95-62.69-136.6-108.18-4.82-5.98-7.23-13.12-7.23-20.27s2.41-14.29,7.23-20.27C43.88,101.08,90.52,63.92,143.83,38.39,195.22,13.78,252.66,0,313.2,0h0ZM313.2,37c-35.86,0-68.32,14.53-91.81,38.03-23.49,23.5-38.03,55.96-38.03,91.81s14.53,68.32,38.03,91.81c23.49,23.5,55.96,38.03,91.81,38.03s68.32-14.53,91.81-38.03c23.49-23.5,38.03-55.96,38.03-91.81s-14.53-68.32-38.03-91.81c-23.5-23.5-55.96-38.03-91.81-38.03h0Z" fill="#fff"/><path d="M331.28,84.96c-27.29-6.07-57,1.57-78.14,22.89-32.73,33.02-32.51,86.32.51,119.05,33.02,32.73,86.32,32.51,119.05-.51,21.14-21.32,28.53-51.1,22.22-78.33-17.68,9.88-40.45,7.37-55.55-7.61-15.1-14.97-17.82-37.72-8.08-55.49h0Z" fill="#fff" fill-rule="evenodd"/></g></svg>