<?xml version="1.0" encoding="UTF-8"?><svg id="Laag_2" xmlns="http://www.w3.org/2000/svg" viewBox="0 0 297.92 317.15"><g id="Layer_1"><path d="M284.28,144.83H107.74c-6.32,0-11.45,5.13-11.45,11.45s5.13,11.45,11.45,11.45h176.53c6.32,0,11.45-5.13,11.45-11.45s-5.13-11.45-11.45-11.45Z" fill="#9400ff"/><path d="M222.3,94.64c-3.39,0-6.75,1.5-9.01,4.37-3.91,4.97-3.05,12.17,1.92,16.08l53.23,41.86-54.17,46.6c-4.79,4.12-5.34,11.35-1.21,16.15,4.12,4.79,11.36,5.34,16.15,1.21l64.72-55.67c2.6-2.23,4.06-5.51,3.98-8.93-.08-3.42-1.68-6.63-4.37-8.75l-64.18-50.46c-2.1-1.65-4.59-2.45-7.07-2.45Z" fill="#9400ff"/><path d="M165.38,305.77H57.57c-25.41,0-46.19-20.79-46.19-46.19V57.57c0-25.41,20.79-46.19,46.19-46.19h106.62" fill="none" stroke="#9400ff" stroke-linecap="round" stroke-linejoin="round" stroke-width="22.75"/></g></svg>