<?xml version="1.0" encoding="UTF-8"?><svg id="Laag_2" xmlns="http://www.w3.org/2000/svg" viewBox="0 0 368.56 308.56"><g id="Layer_1"><path d="M116.16,308.04c8.18,2.19,16.59-2.68,18.78-10.86,2.19-8.18-2.68-16.59-10.86-18.78-33.61-9.01-60.39-30.78-76.52-58.71-16.11-27.9-21.57-61.98-12.56-95.6,9.01-33.61,30.78-60.39,58.71-76.52,27.9-16.11,61.98-21.57,95.6-12.56,33.61,9.01,60.39,30.78,76.52,58.71,16.11,27.9,21.57,61.98,12.56,95.6-2.19,8.18,2.68,16.59,10.86,18.78,8.18,2.19,16.59-2.68,18.78-10.86,11.19-41.77,4.38-84.14-15.68-118.88-20.05-34.72-53.33-61.79-95.12-72.99C155.48-5.82,113.1.99,78.36,21.05,43.64,41.1,16.56,74.39,5.37,116.17c-11.19,41.77-4.38,84.14,15.68,118.88,20.05,34.72,53.34,61.79,95.12,72.99h0Z" fill="#9400ff"/><path d="M362.98,155.7c6.53-5.37,7.47-15.01,2.1-21.54-5.37-6.53-15.01-7.47-21.54-2.1l-48.23,39.69-39.68-48.22c-5.37-6.53-15.01-7.47-21.54-2.1-6.53,5.37-7.47,15.01-2.1,21.54l48.57,59.03c.25.36.51.71.79,1.05,5.39,6.55,15.07,7.49,21.62,2.1l-.04-.04,60.04-49.4Z" fill="#9400ff"/></g></svg>